<mxfile host="app.diagrams.net" modified="2021-03-10T08:09:48.048Z" agent="5.0 (Macintosh; Intel Mac OS X 10_15_6) AppleWebKit/537.36 (KHTML, like Gecko) Chrome/88.0.4324.192 Safari/537.36" etag="5QLDW2Ic2Jhsc5KYx2Hn" version="14.2.4" type="github">
  <diagram id="YBlJNqYZdvzph8bBGXMZ" name="Page-1">
    <mxGraphModel dx="1183" dy="1770" grid="1" gridSize="10" guides="1" tooltips="1" connect="1" arrows="1" fold="1" page="1" pageScale="1" pageWidth="827" pageHeight="1169" math="0" shadow="0">
      <root>
        <mxCell id="0" />
        <mxCell id="1" parent="0" />
        <mxCell id="h-Pb_J9GBKjilBM9zjWG-3" value="" style="edgeStyle=orthogonalEdgeStyle;rounded=0;orthogonalLoop=1;jettySize=auto;html=1;curved=1;" edge="1" parent="1" source="h-Pb_J9GBKjilBM9zjWG-1" target="h-Pb_J9GBKjilBM9zjWG-2">
          <mxGeometry relative="1" as="geometry" />
        </mxCell>
        <mxCell id="h-Pb_J9GBKjilBM9zjWG-1" value="&lt;span style=&quot;font-weight: normal&quot;&gt;id&lt;/span&gt;" style="rounded=1;whiteSpace=wrap;html=1;fontFamily=Comic Sans MS;fontStyle=1;fontSize=20;" vertex="1" parent="1">
          <mxGeometry x="240" y="-80" width="120" height="60" as="geometry" />
        </mxCell>
        <mxCell id="h-Pb_J9GBKjilBM9zjWG-7" value="" style="edgeStyle=orthogonalEdgeStyle;rounded=0;orthogonalLoop=1;jettySize=auto;html=1;fontFamily=Comic Sans MS;fontSize=20;curved=1;" edge="1" parent="1" source="h-Pb_J9GBKjilBM9zjWG-2" target="h-Pb_J9GBKjilBM9zjWG-6">
          <mxGeometry relative="1" as="geometry" />
        </mxCell>
        <mxCell id="h-Pb_J9GBKjilBM9zjWG-9" style="edgeStyle=orthogonalEdgeStyle;rounded=0;orthogonalLoop=1;jettySize=auto;html=1;exitX=1;exitY=0.5;exitDx=0;exitDy=0;entryX=0;entryY=0.5;entryDx=0;entryDy=0;fontFamily=Comic Sans MS;fontSize=20;curved=1;" edge="1" parent="1" source="h-Pb_J9GBKjilBM9zjWG-2" target="h-Pb_J9GBKjilBM9zjWG-8">
          <mxGeometry relative="1" as="geometry" />
        </mxCell>
        <mxCell id="h-Pb_J9GBKjilBM9zjWG-11" style="edgeStyle=orthogonalEdgeStyle;curved=1;rounded=0;orthogonalLoop=1;jettySize=auto;html=1;exitX=1;exitY=0.5;exitDx=0;exitDy=0;entryX=0;entryY=0.5;entryDx=0;entryDy=0;fontFamily=Comic Sans MS;fontSize=20;" edge="1" parent="1" source="h-Pb_J9GBKjilBM9zjWG-2" target="h-Pb_J9GBKjilBM9zjWG-10">
          <mxGeometry relative="1" as="geometry" />
        </mxCell>
        <mxCell id="h-Pb_J9GBKjilBM9zjWG-2" value="&lt;span style=&quot;font-size: 20px ; font-weight: normal&quot;&gt;smp_id&lt;/span&gt;" style="whiteSpace=wrap;html=1;rounded=1;fontFamily=Comic Sans MS;fontSize=20;align=center;fontStyle=1" vertex="1" parent="1">
          <mxGeometry x="440" y="-80" width="120" height="60" as="geometry" />
        </mxCell>
        <mxCell id="h-Pb_J9GBKjilBM9zjWG-6" value="&lt;span style=&quot;font-size: 20px ; font-weight: normal&quot;&gt;create_id&lt;br&gt;&lt;/span&gt;" style="whiteSpace=wrap;html=1;rounded=1;fontFamily=Comic Sans MS;fontSize=20;align=center;fontStyle=1" vertex="1" parent="1">
          <mxGeometry x="640" y="-80" width="120" height="60" as="geometry" />
        </mxCell>
        <mxCell id="h-Pb_J9GBKjilBM9zjWG-8" value="&lt;span style=&quot;font-size: 20px ; font-weight: normal&quot;&gt;create_id&lt;br&gt;&lt;/span&gt;" style="whiteSpace=wrap;html=1;rounded=1;fontFamily=Comic Sans MS;fontSize=20;align=center;fontStyle=1" vertex="1" parent="1">
          <mxGeometry x="640" width="120" height="60" as="geometry" />
        </mxCell>
        <mxCell id="h-Pb_J9GBKjilBM9zjWG-10" value="&lt;span style=&quot;font-size: 20px ; font-weight: normal&quot;&gt;...&lt;br&gt;&lt;/span&gt;" style="whiteSpace=wrap;html=1;rounded=1;fontFamily=Comic Sans MS;fontSize=20;align=center;fontStyle=1" vertex="1" parent="1">
          <mxGeometry x="640" y="-160" width="120" height="60" as="geometry" />
        </mxCell>
        <mxCell id="h-Pb_J9GBKjilBM9zjWG-14" value="" style="edgeStyle=orthogonalEdgeStyle;curved=1;rounded=0;orthogonalLoop=1;jettySize=auto;html=1;fontFamily=Comic Sans MS;fontSize=20;" edge="1" parent="1" source="h-Pb_J9GBKjilBM9zjWG-12" target="h-Pb_J9GBKjilBM9zjWG-13">
          <mxGeometry relative="1" as="geometry" />
        </mxCell>
        <mxCell id="h-Pb_J9GBKjilBM9zjWG-12" value="DSP" style="rounded=1;whiteSpace=wrap;html=1;fontFamily=Comic Sans MS;fontSize=20;align=center;" vertex="1" parent="1">
          <mxGeometry x="240" y="440" width="120" height="60" as="geometry" />
        </mxCell>
        <mxCell id="h-Pb_J9GBKjilBM9zjWG-26" value="" style="edgeStyle=orthogonalEdgeStyle;curved=1;rounded=0;orthogonalLoop=1;jettySize=auto;html=1;fontFamily=Comic Sans MS;fontSize=20;" edge="1" parent="1" source="h-Pb_J9GBKjilBM9zjWG-13" target="h-Pb_J9GBKjilBM9zjWG-25">
          <mxGeometry relative="1" as="geometry" />
        </mxCell>
        <mxCell id="h-Pb_J9GBKjilBM9zjWG-13" value="搜索在线读" style="rounded=1;whiteSpace=wrap;html=1;fontFamily=Comic Sans MS;fontSize=20;align=center;" vertex="1" parent="1">
          <mxGeometry x="240" y="580" width="120" height="60" as="geometry" />
        </mxCell>
        <mxCell id="h-Pb_J9GBKjilBM9zjWG-15" value="场景, 格式要求, 尺寸要求" style="text;html=1;strokeColor=none;fillColor=none;align=center;verticalAlign=middle;whiteSpace=wrap;rounded=0;fontFamily=Comic Sans MS;fontSize=20;" vertex="1" parent="1">
          <mxGeometry x="320" y="520" width="270" height="30" as="geometry" />
        </mxCell>
        <mxCell id="h-Pb_J9GBKjilBM9zjWG-16" value="" style="shape=flexArrow;endArrow=classic;html=1;fontFamily=Comic Sans MS;fontSize=20;" edge="1" parent="1">
          <mxGeometry width="50" height="50" relative="1" as="geometry">
            <mxPoint x="840" y="-40" as="sourcePoint" />
            <mxPoint x="910" y="-40" as="targetPoint" />
          </mxGeometry>
        </mxCell>
        <mxCell id="h-Pb_J9GBKjilBM9zjWG-17" value="&lt;span style=&quot;font-weight: 400&quot;&gt;...&lt;/span&gt;" style="rounded=1;whiteSpace=wrap;html=1;fontFamily=Comic Sans MS;fontStyle=1;fontSize=20;" vertex="1" parent="1">
          <mxGeometry x="240" y="-10" width="120" height="60" as="geometry" />
        </mxCell>
        <mxCell id="h-Pb_J9GBKjilBM9zjWG-18" value="&lt;span style=&quot;font-weight: normal&quot;&gt;guid&lt;/span&gt;" style="rounded=1;whiteSpace=wrap;html=1;fontFamily=Comic Sans MS;fontStyle=1;fontSize=20;" vertex="1" parent="1">
          <mxGeometry x="950" y="-70" width="120" height="60" as="geometry" />
        </mxCell>
        <mxCell id="h-Pb_J9GBKjilBM9zjWG-19" value="&lt;span style=&quot;font-weight: normal&quot;&gt;场景&lt;/span&gt;" style="rounded=1;whiteSpace=wrap;html=1;fontFamily=Comic Sans MS;fontStyle=1;fontSize=20;" vertex="1" parent="1">
          <mxGeometry x="1070" y="-70" width="120" height="60" as="geometry" />
        </mxCell>
        <mxCell id="h-Pb_J9GBKjilBM9zjWG-20" value="key" style="text;html=1;strokeColor=none;fillColor=none;align=center;verticalAlign=middle;whiteSpace=wrap;rounded=0;fontFamily=Comic Sans MS;fontSize=20;" vertex="1" parent="1">
          <mxGeometry x="1030" y="-130" width="40" height="20" as="geometry" />
        </mxCell>
        <mxCell id="h-Pb_J9GBKjilBM9zjWG-21" value="value" style="text;html=1;strokeColor=none;fillColor=none;align=center;verticalAlign=middle;whiteSpace=wrap;rounded=0;fontFamily=Comic Sans MS;fontSize=20;" vertex="1" parent="1">
          <mxGeometry x="1300" y="-130" width="40" height="20" as="geometry" />
        </mxCell>
        <mxCell id="h-Pb_J9GBKjilBM9zjWG-34" style="edgeStyle=orthogonalEdgeStyle;curved=1;rounded=0;orthogonalLoop=1;jettySize=auto;html=1;exitX=1;exitY=0.5;exitDx=0;exitDy=0;fontFamily=Comic Sans MS;fontSize=20;" edge="1" parent="1" source="h-Pb_J9GBKjilBM9zjWG-23" target="h-Pb_J9GBKjilBM9zjWG-33">
          <mxGeometry relative="1" as="geometry" />
        </mxCell>
        <mxCell id="h-Pb_J9GBKjilBM9zjWG-35" value="指定人群包" style="edgeLabel;html=1;align=center;verticalAlign=middle;resizable=0;points=[];fontSize=20;fontFamily=Comic Sans MS;" vertex="1" connectable="0" parent="h-Pb_J9GBKjilBM9zjWG-34">
          <mxGeometry x="0.0909" y="-15" relative="1" as="geometry">
            <mxPoint as="offset" />
          </mxGeometry>
        </mxCell>
        <mxCell id="h-Pb_J9GBKjilBM9zjWG-23" value="&lt;span style=&quot;font-size: 20px ; font-weight: normal&quot;&gt;create_id1&lt;br&gt;&lt;/span&gt;" style="whiteSpace=wrap;html=1;rounded=1;fontFamily=Comic Sans MS;fontSize=20;align=center;fontStyle=1" vertex="1" parent="1">
          <mxGeometry x="1270" y="-70" width="120" height="60" as="geometry" />
        </mxCell>
        <mxCell id="h-Pb_J9GBKjilBM9zjWG-30" style="edgeStyle=orthogonalEdgeStyle;curved=1;rounded=0;orthogonalLoop=1;jettySize=auto;html=1;exitX=0.5;exitY=1;exitDx=0;exitDy=0;fontFamily=Comic Sans MS;fontSize=20;" edge="1" parent="1" source="h-Pb_J9GBKjilBM9zjWG-24">
          <mxGeometry relative="1" as="geometry">
            <mxPoint x="1330" y="290" as="targetPoint" />
          </mxGeometry>
        </mxCell>
        <mxCell id="h-Pb_J9GBKjilBM9zjWG-31" value="指定人群包" style="edgeLabel;html=1;align=center;verticalAlign=middle;resizable=0;points=[];fontSize=20;fontFamily=Comic Sans MS;" vertex="1" connectable="0" parent="h-Pb_J9GBKjilBM9zjWG-30">
          <mxGeometry x="0.0917" y="-14" relative="1" as="geometry">
            <mxPoint as="offset" />
          </mxGeometry>
        </mxCell>
        <mxCell id="h-Pb_J9GBKjilBM9zjWG-24" value="&lt;span style=&quot;font-weight: 400&quot;&gt;create_idN&lt;/span&gt;&lt;span style=&quot;font-size: 20px ; font-weight: normal&quot;&gt;&lt;br&gt;&lt;/span&gt;" style="whiteSpace=wrap;html=1;rounded=1;fontFamily=Comic Sans MS;fontSize=20;align=center;fontStyle=1" vertex="1" parent="1">
          <mxGeometry x="1270" y="50" width="120" height="60" as="geometry" />
        </mxCell>
        <mxCell id="h-Pb_J9GBKjilBM9zjWG-28" value="" style="edgeStyle=orthogonalEdgeStyle;curved=1;rounded=0;orthogonalLoop=1;jettySize=auto;html=1;fontFamily=Comic Sans MS;fontSize=20;" edge="1" parent="1" source="h-Pb_J9GBKjilBM9zjWG-25" target="h-Pb_J9GBKjilBM9zjWG-27">
          <mxGeometry relative="1" as="geometry" />
        </mxCell>
        <mxCell id="h-Pb_J9GBKjilBM9zjWG-25" value="根据场景拼key" style="rounded=1;whiteSpace=wrap;html=1;fontFamily=Comic Sans MS;fontSize=20;align=center;" vertex="1" parent="1">
          <mxGeometry x="240" y="720" width="120" height="60" as="geometry" />
        </mxCell>
        <mxCell id="h-Pb_J9GBKjilBM9zjWG-27" value="redis" style="rounded=1;whiteSpace=wrap;html=1;fontFamily=Comic Sans MS;fontSize=20;align=center;" vertex="1" parent="1">
          <mxGeometry x="240" y="860" width="120" height="60" as="geometry" />
        </mxCell>
        <mxCell id="h-Pb_J9GBKjilBM9zjWG-29" value="&lt;span style=&quot;font-size: 20px ; font-weight: normal&quot;&gt;...&lt;br&gt;&lt;/span&gt;" style="whiteSpace=wrap;html=1;rounded=1;fontFamily=Comic Sans MS;fontSize=20;align=center;fontStyle=1" vertex="1" parent="1">
          <mxGeometry x="1270" y="-10" width="120" height="60" as="geometry" />
        </mxCell>
        <mxCell id="h-Pb_J9GBKjilBM9zjWG-32" value="&lt;span style=&quot;font-weight: 400&quot;&gt;10w&lt;/span&gt;&lt;span style=&quot;font-size: 20px ; font-weight: normal&quot;&gt;&lt;br&gt;&lt;/span&gt;" style="whiteSpace=wrap;html=1;rounded=1;fontFamily=Comic Sans MS;fontSize=20;align=center;fontStyle=1" vertex="1" parent="1">
          <mxGeometry x="1270" y="290" width="120" height="60" as="geometry" />
        </mxCell>
        <mxCell id="h-Pb_J9GBKjilBM9zjWG-33" value="&lt;span style=&quot;font-weight: 400&quot;&gt;100w&lt;/span&gt;&lt;span style=&quot;font-size: 20px ; font-weight: normal&quot;&gt;&lt;br&gt;&lt;/span&gt;" style="whiteSpace=wrap;html=1;rounded=1;fontFamily=Comic Sans MS;fontSize=20;align=center;fontStyle=1" vertex="1" parent="1">
          <mxGeometry x="1440" y="290" width="120" height="60" as="geometry" />
        </mxCell>
        <mxCell id="h-Pb_J9GBKjilBM9zjWG-36" value="人群包" style="rounded=1;whiteSpace=wrap;html=1;fontFamily=Comic Sans MS;fontSize=20;align=center;" vertex="1" parent="1">
          <mxGeometry x="820" y="40" width="120" height="60" as="geometry" />
        </mxCell>
        <mxCell id="h-Pb_J9GBKjilBM9zjWG-37" value="" style="shape=flexArrow;endArrow=classic;html=1;fontFamily=Comic Sans MS;fontSize=20;" edge="1" parent="1">
          <mxGeometry width="50" height="50" relative="1" as="geometry">
            <mxPoint x="1510" y="-21" as="sourcePoint" />
            <mxPoint x="1580" y="-21" as="targetPoint" />
          </mxGeometry>
        </mxCell>
        <mxCell id="h-Pb_J9GBKjilBM9zjWG-38" value="&lt;span style=&quot;font-size: 20px ; font-weight: normal&quot;&gt;反向过滤&lt;br&gt;&lt;/span&gt;" style="whiteSpace=wrap;html=1;rounded=1;fontFamily=Comic Sans MS;fontSize=20;align=center;fontStyle=1" vertex="1" parent="1">
          <mxGeometry x="1610" y="-50" width="120" height="60" as="geometry" />
        </mxCell>
        <mxCell id="h-Pb_J9GBKjilBM9zjWG-43" value="value" style="text;html=1;strokeColor=none;fillColor=none;align=center;verticalAlign=middle;whiteSpace=wrap;rounded=0;fontFamily=Comic Sans MS;fontSize=20;" vertex="1" parent="1">
          <mxGeometry x="1800" y="-140" width="40" height="20" as="geometry" />
        </mxCell>
        <mxCell id="h-Pb_J9GBKjilBM9zjWG-44" value="&lt;span style=&quot;font-size: 20px ; font-weight: normal&quot;&gt;create_id1&lt;br&gt;&lt;/span&gt;" style="whiteSpace=wrap;html=1;rounded=1;fontFamily=Comic Sans MS;fontSize=20;align=center;fontStyle=1" vertex="1" parent="1">
          <mxGeometry x="1770" y="-80" width="120" height="60" as="geometry" />
        </mxCell>
        <mxCell id="h-Pb_J9GBKjilBM9zjWG-45" value="&lt;span style=&quot;font-weight: 400&quot;&gt;create_idN&lt;/span&gt;&lt;span style=&quot;font-size: 20px ; font-weight: normal&quot;&gt;&lt;br&gt;&lt;/span&gt;" style="whiteSpace=wrap;html=1;rounded=1;fontFamily=Comic Sans MS;fontSize=20;align=center;fontStyle=1;dashed=1;" vertex="1" parent="1">
          <mxGeometry x="1770" y="50" width="120" height="60" as="geometry" />
        </mxCell>
        <mxCell id="h-Pb_J9GBKjilBM9zjWG-46" value="&lt;span style=&quot;font-size: 20px ; font-weight: normal&quot;&gt;...&lt;br&gt;&lt;/span&gt;" style="whiteSpace=wrap;html=1;rounded=1;fontFamily=Comic Sans MS;fontSize=20;align=center;fontStyle=1" vertex="1" parent="1">
          <mxGeometry x="1770" y="-20" width="120" height="60" as="geometry" />
        </mxCell>
        <mxCell id="h-Pb_J9GBKjilBM9zjWG-47" value="guid 有可能不在人群包里!!!" style="text;html=1;strokeColor=none;fillColor=none;align=center;verticalAlign=middle;whiteSpace=wrap;rounded=0;dashed=1;fontFamily=Comic Sans MS;fontSize=20;" vertex="1" parent="1">
          <mxGeometry x="1545" y="220" width="250" height="20" as="geometry" />
        </mxCell>
        <mxCell id="h-Pb_J9GBKjilBM9zjWG-48" value="&lt;span style=&quot;font-size: 20px ; font-weight: normal&quot;&gt;OAS&lt;br&gt;有接口查询&lt;br&gt;cid是否命中人群&lt;br&gt;&lt;/span&gt;" style="whiteSpace=wrap;html=1;rounded=1;fontFamily=Comic Sans MS;fontSize=20;align=center;fontStyle=1" vertex="1" parent="1">
          <mxGeometry x="1560" y="-280" width="170" height="110" as="geometry" />
        </mxCell>
        <mxCell id="h-Pb_J9GBKjilBM9zjWG-49" value="" style="shape=flexArrow;endArrow=classic;html=1;fontFamily=Comic Sans MS;fontSize=20;" edge="1" parent="1">
          <mxGeometry width="50" height="50" relative="1" as="geometry">
            <mxPoint x="1653" y="-71" as="sourcePoint" />
            <mxPoint x="1653" y="-130" as="targetPoint" />
          </mxGeometry>
        </mxCell>
      </root>
    </mxGraphModel>
  </diagram>
</mxfile>
